<svg width="16" height="16" viewBox="0 0 24 24" fill="none" xmlns="http://www.w3.org/2000/svg">
<g id="Icon ">
<path id="Oval" opacity="0.15" fill-rule="evenodd" clip-rule="evenodd" d="M12 24C18.6274 24 24 18.6274 24 12C24 5.37258 18.6274 0 12 0C5.37258 0 0 5.37258 0 12C0 18.6274 5.37258 24 12 24Z" fill="#36B37E"/>
<path id="Icon" d="M10.3975 15.8242L7.13574 12.582C7.0446 12.4909 6.99902 12.3737 6.99902 12.2305C6.99902 12.0872 7.0446 11.97 7.13574 11.8789L7.8584 11.1758C7.94954 11.0716 8.06347 11.0195 8.20019 11.0195C8.33691 11.0195 8.45735 11.0716 8.56152 11.1758L10.749 13.3633L15.4365 8.67578C15.5407 8.57161 15.6611 8.51953 15.7978 8.51953C15.9345 8.51953 16.0485 8.57161 16.1396 8.67578L16.8623 9.3789C16.9534 9.47005 16.999 9.58724 16.999 9.73047C16.999 9.87369 16.9534 9.99088 16.8623 10.082L11.1006 15.8242C11.0094 15.9284 10.8922 15.9805 10.749 15.9805C10.6058 15.9805 10.4886 15.9284 10.3975 15.8242Z" fill="#36B37E"/>
</g>
</svg>
