<svg width="40" height="40" viewBox="0 0 40 40" fill="none" xmlns="http://www.w3.org/2000/svg">
<rect width="40" height="40" rx="8" fill="#E76E3C"/>
<path fill-rule="evenodd" clip-rule="evenodd" d="M24.179 15.986C24.179 13.7659 22.5627 12.364 20.574 12.364C18.5223 12.364 16.9065 13.7659 16.9065 15.986C16.9065 18.2345 18.4292 19.6368 20.574 19.6368C22.6872 19.6368 24.179 18.2057 24.179 15.986ZM16.0956 24.0556C16.3755 25.7244 17.7122 26.93 19.6713 26.93C22.2836 26.93 23.7454 25.6314 23.7454 22.6961V21.5835C23.1227 22.5727 21.6928 23.5306 19.485 23.5306C15.4112 23.5306 12.3643 20.4088 12.3643 16.1445C12.3643 12.1266 15.2871 8.72717 19.485 8.72717C21.9106 8.72717 23.3099 9.77804 23.8381 10.7976V9.00532H27.8183V22.5727C27.8183 26.7444 25.5483 30.5455 19.7959 30.5455C15.598 30.5455 12.7998 27.9496 12.3643 25.0447L16.0956 24.0556Z" fill="white"/>
</svg>
