<svg width="120" height="40" viewBox="0 0 120 40" fill="none" xmlns="http://www.w3.org/2000/svg">
<path fill-rule="evenodd" clip-rule="evenodd" d="M57.8048 36.0409V37.0002H53.7617V30.793H57.8048V31.7522H54.8786V33.3997H57.6447V34.3031H54.8786V36.0409H57.8048ZM48.6289 37.0002H45.958V30.793H48.5683C49.7544 30.793 50.4686 31.3866 50.4686 32.3416C50.4686 32.9954 49.9838 33.5718 49.3561 33.6708V33.7482C50.1959 33.8256 50.776 34.4278 50.776 35.2365C50.776 36.3249 49.9622 37.0002 48.6289 37.0002ZM47.0752 31.6748V33.4041H48.1531C48.9452 33.4041 49.3651 33.0986 49.3651 32.5394C49.3651 31.9931 48.9712 31.6748 48.2959 31.6748H47.0752ZM48.3738 36.1183H47.0752V34.2041H48.3306C49.1833 34.2041 49.6335 34.531 49.6335 35.1505C49.6335 35.7828 49.1963 36.1183 48.3738 36.1183ZM62.5177 37.0002H63.6345V31.7522H65.5609V30.793H60.5957V31.7522H62.5177V37.0002ZM71.839 37.0002L71.3109 35.4129H69.0123L68.4755 37.0002H67.3457L69.5621 30.793H70.8174L73.0381 37.0002H71.839ZM69.2725 34.535L70.1296 31.9756H70.2032L71.0516 34.535H69.2725Z" fill="#DB6D46"/>
<mask id="mask0_53_836" style="mask-type:alpha" maskUnits="userSpaceOnUse" x="0" y="6" width="16" height="23">
<path fill-rule="evenodd" clip-rule="evenodd" d="M0 6.76562H15.1492V28.1636H0V6.76562Z" fill="white"/>
</mask>
<g mask="url(#mask0_53_836)">
<path fill-rule="evenodd" clip-rule="evenodd" d="M11.2108 14.0491C11.2108 11.7426 9.62298 10.2861 7.66931 10.2861C5.65382 10.2861 4.06641 11.7426 4.06641 14.0491C4.06641 16.385 5.56236 17.8419 7.66931 17.8419C9.74535 17.8419 11.2108 16.3551 11.2108 14.0491ZM3.63848 21.8165C3.91328 23.4551 5.22589 24.6389 7.1495 24.6389C9.71459 24.6389 11.15 23.3638 11.15 20.4817V19.3892C10.5386 20.3605 9.1345 21.301 6.96658 21.301C2.96651 21.301 -0.0253906 18.2358 -0.0253906 14.0487C-0.0253906 10.1035 2.84457 6.76562 6.96658 6.76562C9.34833 6.76562 10.7223 7.79746 11.241 8.79858V7.03873H15.1492V20.3605C15.1492 24.4567 12.9203 28.1889 7.27187 28.1889C3.14985 28.1889 0.402266 25.64 -0.0253906 22.7877L3.63848 21.8165Z" fill="#DB6D46"/>
</g>
<path fill-rule="evenodd" clip-rule="evenodd" d="M28.0027 14.5054C28.0027 11.683 26.1709 10.2568 24.1864 10.2568C22.2014 10.2568 20.3696 11.683 20.3696 14.5054C20.3696 17.2966 22.2014 18.7531 24.1864 18.7531C26.1709 18.7531 28.0027 17.3269 28.0027 14.5054ZM32.0643 14.5046C32.0643 19.086 28.6748 22.4243 24.1869 22.4243C19.6986 22.4243 16.3096 19.086 16.3096 14.5046C16.3096 9.89201 19.6986 6.58398 24.1869 6.58398C28.6748 6.58398 32.0643 9.89201 32.0643 14.5046Z" fill="#DB6D46"/>
<path fill-rule="evenodd" clip-rule="evenodd" d="M44.6134 14.5054C44.6134 11.683 42.7817 10.2568 40.7967 10.2568C38.8121 10.2568 36.98 11.683 36.98 14.5054C36.98 17.2966 38.8121 18.7531 40.7967 18.7531C42.7817 18.7531 44.6134 17.3269 44.6134 14.5054ZM48.675 14.5046C48.675 19.086 45.2855 22.4243 40.7973 22.4243C36.309 22.4243 32.9199 19.086 32.9199 14.5046C32.9199 9.89201 36.309 6.58398 40.7973 6.58398C45.2855 6.58398 48.675 9.89201 48.675 14.5046Z" fill="#DB6D46"/>
<path fill-rule="evenodd" clip-rule="evenodd" d="M57.3469 18.7228C59.4234 18.7228 61.0417 17.1451 61.0417 14.4443C61.0417 11.7738 59.4234 10.2871 57.3469 10.2871C55.2709 10.2871 53.6221 11.8046 53.6221 14.4746C53.6221 17.1451 55.2099 18.7228 57.3469 18.7228ZM64.9797 19.2687C64.9797 20.2702 65.0411 21.3622 65.1025 21.9695H61.2243C61.1638 21.6656 61.0719 20.9376 61.0719 20.2395C60.3999 21.4233 58.8735 22.3335 56.8584 22.3335C52.5836 22.3335 49.5303 18.9956 49.5303 14.4743C49.5303 10.1046 52.4921 6.67581 56.7365 6.67581C59.3317 6.67581 60.5524 7.73752 60.98 8.52655V0H64.9797V19.2687Z" fill="#DB6D46"/>
<path fill-rule="evenodd" clip-rule="evenodd" d="M69.1313 17.053C69.2232 18.2363 70.1086 19.3288 71.8794 19.3288C73.2225 19.3288 73.8644 18.6311 73.8644 17.842C73.8644 17.1742 73.4062 16.628 72.246 16.3852L70.261 15.9303C67.3602 15.2936 66.048 13.5636 66.048 11.4696C66.048 8.79915 68.4293 6.58398 71.6655 6.58398C75.94 6.58398 77.3754 9.28477 77.5587 10.8931L74.1696 11.6514C74.0469 10.7715 73.4062 9.64878 71.6964 9.64878C70.6273 9.64878 69.7724 10.2863 69.7724 11.1359C69.7724 11.8644 70.3224 12.3193 71.1468 12.4712L73.2838 12.9265C76.2457 13.5333 77.7416 15.3235 77.7416 17.5079C77.7416 19.9356 75.8485 22.4243 71.9103 22.4243C67.3911 22.4243 65.8342 19.511 65.6504 17.8117L69.1313 17.053Z" fill="#DB6D46"/>
<path fill-rule="evenodd" clip-rule="evenodd" d="M84.7955 7.03974H87.8183V10.6205H84.7955V16.8717C84.7955 18.1762 85.4061 18.6012 86.5663 18.6012C87.0549 18.6012 87.6045 18.5402 87.8183 18.4796V21.8175C87.4521 21.9694 86.7187 22.1819 85.528 22.1819C82.5971 22.1819 80.7654 20.4519 80.7654 17.5694V10.6205H78.0479V7.03974H78.8109C80.3987 7.03974 81.1316 6.0079 81.1316 4.67266V2.5791H84.7955V7.03974Z" fill="#DB6D46"/>
<path fill-rule="evenodd" clip-rule="evenodd" d="M99.5736 12.8055C99.5126 11.3186 98.5354 9.8623 96.215 9.8623C94.1085 9.8623 92.9479 11.4397 92.8564 12.8055H99.5736ZM103.359 17.6905C102.596 20.2697 100.214 22.4243 96.5201 22.4243C92.398 22.4243 88.7646 19.4807 88.7646 14.4435C88.7646 9.6795 92.307 6.58398 96.1534 6.58398C100.795 6.58398 103.573 9.52758 103.573 14.3223C103.573 14.8984 103.512 15.5053 103.512 15.5663H92.7647C92.8562 17.5386 94.5355 18.9648 96.551 18.9648C98.4441 18.9648 99.4819 18.0243 99.9705 16.689L103.359 17.6905Z" fill="#DB6D46"/>
<path fill-rule="evenodd" clip-rule="evenodd" d="M112.245 18.7228C114.321 18.7228 115.939 17.1451 115.939 14.4443C115.939 11.7738 114.321 10.2871 112.245 10.2871C110.168 10.2871 108.521 11.8046 108.521 14.4746C108.521 17.1451 110.108 18.7228 112.245 18.7228ZM119.879 19.2687C119.879 20.2702 119.939 21.3622 120 21.9695H116.123C116.062 21.6656 115.97 20.9376 115.97 20.2395C115.298 21.4233 113.772 22.3335 111.756 22.3335C107.482 22.3335 104.429 18.9956 104.429 14.4743C104.429 10.1046 107.391 6.67581 111.634 6.67581C114.23 6.67581 115.451 7.73752 115.878 8.52655V0H119.879V19.2687Z" fill="#DB6D46"/>
</svg>
